<svg xmlns="http://www.w3.org/2000/svg" width="1024" height="1024" viewBox="0 0 1500 1500">
  <defs>
    <!-- Mask: beyaz alanlar görünür, siyah alanlar şeffaf -->
    <mask id="logo-mask">
      <!-- Tam beyaz arka plan (daire görünür olacak) -->
      <circle cx="750" cy="750" r="725" fill="white"/>
      <!-- Üst 2 şekli (siyah = şeffaf olacak) -->
      <g transform="matrix(1, 0, 0, 1, 320, 533)">
        <g transform="translate(1.076851, 1196.861881)">
          <path fill="black" d="M 471.390625 -953.671875 C 544.953125 -953.671875 608.753906 -942.085938 662.796875 -918.921875 C 716.835938 -895.765625 758.617188 -862.84375 788.140625 -820.15625 C 817.660156 -777.46875 832.421875 -727.96875 832.421875 -671.65625 C 832.421875 -618.976562 819.25 -571.296875 792.90625 -528.609375 C 766.570312 -485.921875 733.421875 -448.226562 693.453125 -415.53125 C 653.492188 -382.832031 598.546875 -342.867188 528.609375 -295.640625 C 489.554688 -270.203125 457.765625 -248.40625 433.234375 -230.25 L 843.3125 -230.25 L 843.3125 0 L 66.75 0 L 66.75 -65.390625 C 66.75 -113.523438 77.875 -156.441406 100.125 -194.140625 C 122.382812 -231.835938 154.859375 -269.757812 197.546875 -307.90625 C 241.140625 -346.050781 303.8125 -397.820312 385.5625 -463.21875 C 450.957031 -514.988281 496.820312 -554.492188 523.15625 -581.734375 C 549.5 -608.984375 562.671875 -635.78125 562.671875 -662.125 C 562.671875 -690.28125 552.90625 -713.894531 533.375 -732.96875 C 513.84375 -752.039062 484.550781 -761.578125 445.5 -761.578125 C 404.625 -761.578125 372.378906 -749.769531 348.765625 -726.15625 C 325.148438 -702.539062 313.34375 -671.660156 313.34375 -633.515625 L 313.34375 -606.265625 L 70.84375 -606.265625 C 69.9375 -613.523438 69.484375 -623.515625 69.484375 -636.234375 C 69.484375 -734.328125 103.769531 -811.753906 172.34375 -868.515625 C 240.914062 -925.285156 340.597656 -953.671875 471.390625 -953.671875 Z M 471.390625 -953.671875"/>
        </g>
      </g>
      <!-- Alt 2 şekli (ters, siyah = şeffaf olacak) -->
      <g transform="matrix(1, 0, 0, 1, 281, 0)">
        <g transform="translate(909.562939, -230.617418)">
          <path fill="black" d="M -471.390625 953.671875 C -544.953125 953.671875 -608.753906 942.085938 -662.796875 918.921875 C -716.835938 895.765625 -758.617188 862.84375 -788.140625 820.15625 C -817.660156 777.46875 -832.421875 727.96875 -832.421875 671.65625 C -832.421875 618.976562 -819.25 571.296875 -792.90625 528.609375 C -766.570312 485.921875 -733.421875 448.226562 -693.453125 415.53125 C -653.492188 382.832031 -598.546875 342.867188 -528.609375 295.640625 C -489.554688 270.203125 -457.765625 248.40625 -433.234375 230.25 L -843.3125 230.25 L -843.3125 0 L -66.75 0 L -66.75 65.390625 C -66.75 113.523438 -77.875 156.441406 -100.125 194.140625 C -122.382812 231.835938 -154.859375 269.757812 -197.546875 307.90625 C -241.140625 346.050781 -303.8125 397.820312 -385.5625 463.21875 C -450.957031 514.988281 -496.820312 554.492188 -523.15625 581.734375 C -549.5 608.984375 -562.671875 635.78125 -562.671875 662.125 C -562.671875 690.28125 -552.90625 713.894531 -533.375 732.96875 C -513.84375 752.039062 -484.550781 761.578125 -445.5 761.578125 C -404.625 761.578125 -372.378906 749.769531 -348.765625 726.15625 C -325.148438 702.539062 -313.34375 671.660156 -313.34375 633.515625 L -313.34375 606.265625 L -70.84375 606.265625 C -69.9375 613.523438 -69.484375 623.515625 -69.484375 636.234375 C -69.484375 734.328125 -103.769531 811.753906 -172.34375 868.515625 C -240.914062 925.285156 -340.597656 953.671875 -471.390625 953.671875 Z M -471.390625 953.671875"/>
        </g>
      </g>
    </mask>
  </defs>
  <!-- Yeşil daire, mask uygulanmış (2 şekilleri kesilmiş) -->
  <circle cx="750" cy="750" r="725" fill="#0f172a" mask="url(#logo-mask)"/>
</svg>